<mxfile host="app.diagrams.net" modified="2023-11-01T07:43:12.157Z" agent="Mozilla/5.0 (Windows NT 10.0; Win64; x64) AppleWebKit/537.36 (KHTML, like Gecko) Chrome/118.0.0.0 Safari/537.36" version="22.0.8" etag="wKDnIHP3Haz4CJn3WQIb" type="github">
  <diagram name="Sayfa -1" id="ouz83AXYxTKq1LBRzYFy">
    <mxGraphModel>
      <root>
        <mxCell id="0" />
        <mxCell id="1" parent="0" />
      </root>
    </mxGraphModel>
  </diagram>
</mxfile>
